<?xml version="1.0" encoding="utf-8"?>
<COLLADA xmlns="http://www.collada.org/2005/11/COLLADASchema" version="1.4.1" xmlns:xsi="http://www.w3.org/2001/XMLSchema-instance">
  <asset>
    <contributor>
      <author>Blender User</author>
      <authoring_tool>Blender 2.80.75 commit date:2019-07-29, commit time:14:47, hash:f6cb5f54494e</authoring_tool>
    </contributor>
    <created>2019-08-19T15:45:58</created>
    <modified>2019-08-19T15:45:58</modified>
    <unit name="meter" meter="1"/>
    <up_axis>Z_UP</up_axis>
  </asset>
  <library_cameras>
    <camera id="Camera-camera" name="Camera">
      <optics>
        <technique_common>
          <perspective>
            <xfov sid="xfov">39.59775</xfov>
            <aspect_ratio>1.777778</aspect_ratio>
            <znear sid="znear">0.1</znear>
            <zfar sid="zfar">100</zfar>
          </perspective>
        </technique_common>
      </optics>
      <extra>
        <technique profile="blender">
          <shiftx sid="shiftx" type="float">0</shiftx>
          <shifty sid="shifty" type="float">0</shifty>
          <dof_distance sid="dof_distance" type="float">10</dof_distance>
        </technique>
      </extra>
    </camera>
  </library_cameras>
  <library_lights>
    <light id="Light-light" name="Light">
      <technique_common>
        <point>
          <color sid="color">1000 1000 1000</color>
          <constant_attenuation>1</constant_attenuation>
          <linear_attenuation>0</linear_attenuation>
          <quadratic_attenuation>0.00111109</quadratic_attenuation>
        </point>
      </technique_common>
      <extra>
        <technique profile="blender">
          <type sid="type" type="int">0</type>
          <flag sid="flag" type="int">0</flag>
          <mode sid="mode" type="int">1</mode>
          <gamma sid="blender_gamma" type="float">1</gamma>
          <red sid="red" type="float">1</red>
          <green sid="green" type="float">1</green>
          <blue sid="blue" type="float">1</blue>
          <shadow_r sid="blender_shadow_r" type="float">0</shadow_r>
          <shadow_g sid="blender_shadow_g" type="float">0</shadow_g>
          <shadow_b sid="blender_shadow_b" type="float">0</shadow_b>
          <energy sid="blender_energy" type="float">1000</energy>
          <dist sid="blender_dist" type="float">29.99998</dist>
          <spotsize sid="spotsize" type="float">75</spotsize>
          <spotblend sid="spotblend" type="float">0.15</spotblend>
          <att1 sid="att1" type="float">0</att1>
          <att2 sid="att2" type="float">1</att2>
          <falloff_type sid="falloff_type" type="int">2</falloff_type>
          <clipsta sid="clipsta" type="float">0.04999995</clipsta>
          <clipend sid="clipend" type="float">30.002</clipend>
          <bias sid="bias" type="float">1</bias>
          <soft sid="soft" type="float">3</soft>
          <bufsize sid="bufsize" type="int">2880</bufsize>
          <samp sid="samp" type="int">3</samp>
          <buffers sid="buffers" type="int">1</buffers>
          <area_shape sid="area_shape" type="int">1</area_shape>
          <area_size sid="area_size" type="float">0.1</area_size>
          <area_sizey sid="area_sizey" type="float">0.1</area_sizey>
          <area_sizez sid="area_sizez" type="float">1</area_sizez>
        </technique>
      </extra>
    </light>
  </library_lights>
  <library_images/>
  <library_geometries>
    <geometry id="M-DOME-mesh" name="M-DOME">
      <mesh>
        <source id="M-DOME-mesh-positions">
          <float_array id="M-DOME-mesh-positions-array" count="1098">240.8184 0 1.231506 260 10 0 260 0 0 279.1816 10 1.231506 279.1816 0 1.231506 260 0 150 221.9518 0 4.905775 240.8184 10 1.231506 298.0482 10 4.905775 298.0482 0 4.905775 203.7099 0 10.96249 221.9518 10 4.905775 316.2901 10 10.96249 316.2901 0 10.96249 186.3924 0 19.3022 203.7099 10 10.96249 333.6076 10 19.3022 333.6076 0 19.3022 170.2834 0 29.78797 186.3924 10 19.3022 349.7166 10 29.78797 349.7166 0 29.78797 155.6476 0 42.2476 170.2834 10 29.78797 364.3524 10 42.2476 364.3524 0 42.2476 142.7253 0 56.47653 155.6476 10 42.2476 377.2747 10 56.47653 377.2747 0 56.47653 131.7286 0 72.24112 142.7253 10 56.47653 388.2714 10 72.24112 388.2714 0 72.24112 122.8381 0 89.28251 131.7286 10 72.24112 397.1619 10 89.28251 397.1619 0 89.28251 116.1998 0 107.3209 122.8381 10 89.28251 403.8002 10 107.3209 403.8002 0 107.3209 111.9227 0 126.06 116.1998 10 107.3209 408.0773 10 126.06 408.0773 0 126.06 110.0771 0 145.1923 111.9227 10 126.06 409.9229 10 145.1923 409.9229 0 145.1923 110.6931 0 164.4035 110.0771 10 145.1923 409.3069 10 164.4035 409.3069 0 164.4035 260 0 300 250.3894 0 299.6918 269.6105 0 299.6918 325.0826 0 285.1454 307.2662 0 292.3584 288.6738 0 297.2339 371.0417 0 250.8451 357.2343 0 264.2169 341.8302 0 275.7132 400.7702 0 201.8048 392.9899 0 219.3807 383.0258 0 235.8175 406.2392 0 183.3781 119.2297 0 201.8048 113.7608 0 183.3781 148.9583 0 250.8451 136.9741 0 235.8175 127.0101 0 219.3807 194.9174 0 285.1454 178.1697 0 275.7132 162.7657 0 264.2169 231.3262 0 297.2339 212.7337 0 292.3584 110.6931 10 164.4035 406.2392 10 183.3781 113.7608 10 183.3781 400.7702 10 201.8048 119.2297 10 201.8048 392.9899 10 219.3807 127.0101 10 219.3807 383.0258 10 235.8175 136.9741 10 235.8175 371.0417 10 250.8451 148.9583 10 250.8451 357.2343 10 264.2169 162.7657 10 264.2169 341.8302 10 275.7132 178.1697 10 275.7132 325.0826 10 285.1454 194.9174 10 285.1454 307.2662 10 292.3584 212.7337 10 292.3584 288.6738 10 297.2339 231.3262 10 297.2339 269.6105 10 299.6918 260 10 300 250.3894 10 299.6918 260 10 95.00001 250.4493 10 95.83558 269.5506 10 95.83558 241.1889 10 98.31691 278.8111 10 98.31691 232.5 10 102.3686 224.6467 10 107.8676 287.5 10 102.3686 295.3533 10 107.8676 217.8675 10 114.6467 302.1325 10 114.6467 212.3686 10 122.5 307.6314 10 122.5 208.3169 10 131.1889 311.6831 10 131.1889 269.5506 77 95.83558 260 77 95.00001 250.4493 77 95.83558 278.8111 77 98.31691 241.1889 77 98.31691 287.5 77 102.3686 232.5 77 102.3686 295.3533 77 107.8676 205.8356 10 140.4494 224.6467 77 107.8676 302.1325 77 114.6467 217.8675 77 114.6467 307.6314 77 122.5 212.3686 77 122.5 311.6831 77 131.1889 205 10 150 314.1644 10 140.4494 208.3169 77 131.1889 314.1644 77 140.4494 205.8356 77 140.4494 315 10 150 315 77 150 314.1644 10 159.5507 314.1644 77 159.5507 205.8356 10 159.5507 205 77 150 208.3169 10 168.8111 205.8356 77 159.5507 311.6831 10 168.8111 311.6831 77 168.8111 212.3686 10 177.5 208.3169 77 168.8111 307.6314 10 177.5 307.6314 77 177.5 217.8675 10 185.3533 212.3686 77 177.5 302.1325 10 185.3533 302.1325 77 185.3533 224.6467 10 192.1324 217.8675 77 185.3533 295.3533 10 192.1324 295.3533 77 192.1324 232.5 10 197.6314 224.6467 77 192.1324 287.5 10 197.6314 287.5 77 197.6314 241.1889 10 201.6831 232.5 77 197.6314 278.8111 10 201.6831 278.8111 77 201.6831 250.4493 10 204.1644 241.1889 77 201.6831 269.5506 10 204.1644 269.5506 77 204.1644 260 10 205 250.4493 77 204.1644 260 77 205 168 88 85.00001 168 158 47.00001 168 77 47.00001 168 88 215 168 77 253 352 158 47.00001 352 77 47.00001 352 88 85.00001 352 77 253 352 158 85.00001 168 158 215 168 158 253 352 88 215 352 158 253 168 158 85.00001 17.99999 158 85.00001 502 158 85.00001 502 158 215 17.99999 158 215 352 158 215 0 158 298 0 329 2.000004 0 158 2.000004 168 329 2.000004 168 158 2.000004 168 329 47.00001 352 329 47.00001 352 329 2.000004 352 158 2.000004 520 329 2.000004 520 158 2.000004 520 329 298 520 158 298 168 329 253 168 158 298 352 329 253 352 158 298 352 329 298 66.89899 196.5154 298 58.99998 200.1987 298 51.86061 205.1978 298 45.69776 211.3606 298 40.69872 218.5 298 37.01536 226.399 298 84 193.5 298 75.31758 194.2596 298 34.7596 234.8176 298 34 243.5 298 0 329 298 168 329 298 134 243.5 298 133.2404 234.8176 298 130.9846 226.399 298 127.3013 218.5 298 122.3022 211.3606 298 116.1394 205.1978 298 109 200.1987 298 101.101 196.5154 298 92.68241 194.2596 298 418.899 196.5154 298 411 200.1987 298 386 243.5 298 403.8606 205.1978 298 397.6978 211.3606 298 392.6987 218.5 298 436 193.5 298 427.3176 194.2596 298 389.0154 226.399 298 386.7596 234.8176 298 486 243.5 298 485.2404 234.8176 298 482.9846 226.399 298 479.3013 218.5 298 474.3022 211.3606 298 468.1394 205.1978 298 461 200.1987 298 453.101 196.5154 298 444.6824 194.2596 298 84 193.5 308 75.31758 194.2596 308 436 193.5 308 427.3176 194.2596 308 92.68241 194.2596 308 121.5 231 308 444.6824 194.2596 308 436 243.5 308 66.89899 196.5154 308 418.899 196.5154 308 101.101 196.5154 308 453.101 196.5154 308 58.99998 200.1987 308 411 200.1987 308 109 200.1987 308 461 200.1987 308 51.86061 205.1978 308 403.8606 205.1978 308 116.1394 205.1978 308 468.1394 205.1978 308 45.69776 211.3606 308 397.6978 211.3606 308 122.3022 211.3606 308 474.3022 211.3606 308 40.69872 218.5 308 392.6987 218.5 308 127.3013 218.5 308 479.3013 218.5 308 37.01536 226.399 308 389.0154 226.399 308 130.9846 226.399 308 482.9846 226.399 308 34.7596 234.8176 308 386.7596 234.8176 308 46.5 231 308 133.2404 234.8176 308 485.2404 234.8176 308 46.5 256 308 34.7596 252.1824 308 34 243.5 308 46.5 231 313 46.5 256 313 134 243.5 308 121.5 256 308 121.5 231 313 121.5 256 313 386 243.5 308 486 243.5 308 34.7596 252.1824 298 133.2404 252.1824 298 386.7596 252.1824 298 386.7596 252.1824 308 485.2404 252.1824 298 133.2404 252.1824 308 485.2404 252.1824 308 389.0154 260.601 308 403.8606 281.8023 308 397.6978 275.6394 308 392.6987 268.5 308 427.3176 292.7404 308 418.899 290.4847 308 411 286.8013 308 453.101 290.4847 308 444.6824 292.7404 308 436 293.5 308 474.3022 275.6394 308 468.1394 281.8023 308 461 286.8013 308 482.9846 260.601 308 479.3013 268.5 308 37.01536 260.601 298 37.01536 260.601 308 130.9846 260.601 298 389.0154 260.601 298 482.9846 260.601 298 130.9846 260.601 308 40.69872 268.5 308 58.99998 286.8013 308 51.86061 281.8023 308 45.69776 275.6394 308 116.1394 281.8023 308 109 286.8013 308 127.3013 268.5 308 122.3022 275.6394 308 101.101 290.4847 308 92.68241 292.7404 308 84 293.5 308 75.31758 292.7404 308 66.89899 290.4847 308 40.69872 268.5 298 127.3013 268.5 298 392.6987 268.5 298 479.3013 268.5 298 45.69776 275.6394 298 122.3022 275.6394 298 397.6978 275.6394 298 474.3022 275.6394 298 51.86061 281.8023 298 116.1394 281.8023 298 403.8606 281.8023 298 468.1394 281.8023 298 58.99998 286.8013 298 109 286.8013 298 411 286.8013 298 461 286.8013 298 66.89899 290.4847 298 101.101 290.4847 298 418.899 290.4847 298 453.101 290.4847 298 75.31758 292.7404 298 92.68241 292.7404 298 427.3176 292.7404 298 444.6824 292.7404 298 84 293.5 298 436 293.5 298</float_array>
          <technique_common>
            <accessor source="#M-DOME-mesh-positions-array" count="366" stride="3">
              <param name="X" type="float"/>
              <param name="Y" type="float"/>
              <param name="Z" type="float"/>
            </accessor>
          </technique_common>
        </source>
        <source id="M-DOME-mesh-normals">
          <float_array id="M-DOME-mesh-normals-array" count="1032">-0.06407064 0 -0.9979454 0.0640707 0 -0.9979454 0 -1 0 -0.1911583 0 -0.9815593 0.1911581 0 -0.9815593 0.1911582 0 -0.9815593 -0.3151082 0 -0.9490559 -0.1911583 0 -0.9815593 0.3151082 0 -0.9490559 0.3151082 0 -0.9490559 -0.4338843 0 -0.9009687 -0.3151082 0 -0.9490559 0.4338839 0 -0.9009688 0.4338838 0 -0.9009689 -0.5455351 0 -0.8380881 -0.4338841 0 -0.9009687 0.5455358 0 -0.8380876 0.5455356 0 -0.8380877 -0.6482279 0 -0.7614464 -0.5455349 0 -0.8380883 0.6482275 0 -0.7614467 0.6482274 0 -0.761447 -0.7402782 0 -0.6723008 -0.6482277 0 -0.7614465 0.7402782 0 -0.6723008 -0.8201724 0 -0.5721165 0.8201727 0 -0.572116 -0.8865994 0 -0.4625384 0.8865988 0 -0.4625393 0.886599 0 -0.4625391 -0.9384683 0 -0.3453652 -0.8865994 0 -0.4625381 0.9384687 0 -0.3453646 -0.9749281 0 -0.2225205 0.9749282 0 -0.2225201 0.9749283 0 -0.2225198 -0.9953791 0 -0.09602338 -0.9749282 0 -0.2225202 0.9953791 0 -0.09602338 -0.9994863 0 0.03205198 0.9994863 0 0.0320512 -0.987182 0 0.159599 0.987182 0 0.1595985 0.987182 0 0.1595988 -0.9586676 0 0.2845285 -0.9871819 0 0.1595991 0.9586673 0 0.2845296 -0.9144127 0 0.4047831 0.9144132 0 0.4047821 0.9144136 0 0.4047812 -0.8551423 0 0.5183935 -0.9144132 0 0.4047821 0.8551418 0 0.5183943 0.8551424 0 0.5183932 -0.7818318 0 0.6234895 -0.8551429 0 0.5183923 0.7818318 0 0.6234895 -0.6956815 0 0.7183504 0.6956819 0 0.7183501 0.6956832 0 0.7183488 -0.5981112 0 0.8014132 -0.6956828 0 0.7183492 0.5981112 0 0.8014132 -0.490718 0 0.8713185 0.490718 0 0.8713185 -0.3752653 0 0.9269174 0.3752653 0 0.9269174 0.3752675 0 0.9269167 -0.2536557 0 0.9672946 -0.3752675 0 0.9269167 0.2536559 0 0.9672946 0.2536535 0 0.9672952 -0.1278759 0 0.9917902 -0.2536533 0 0.9672952 0.1278758 0 0.9917902 -0.03205275 0 0.9994862 0.03205281 0 0.9994863 0 1 0 0 1 0 0.08715587 0 -0.9961947 -0.08715558 0 -0.9961947 0.08715587 0 -0.9961948 -0.2588188 0 -0.9659259 0.2588184 0 -0.9659261 0.2588185 0 -0.9659261 -0.422618 0 -0.906308 -0.2588189 0 -0.9659259 0.422618 0 -0.906308 -0.5735774 0 -0.8191514 0.5735782 0 -0.8191509 0.573576 0 -0.8191523 0 1 0 -0.7071072 0 -0.7071064 -0.5735753 0 -0.8191528 0.7071063 0 -0.7071073 0.7071056 0 -0.7071079 -0.8191526 0 -0.5735757 -0.7071065 0 -0.7071071 0.8191534 0 -0.5735746 -0.9063075 0 -0.4226192 -0.8191526 0 -0.5735757 0.9063075 0 -0.4226192 0.9063079 0 -0.422618 0 1 0 -0.9659255 0 -0.2588202 -0.9063079 0 -0.422618 0.9659252 0 -0.2588217 0.9659253 0 -0.258821 -0.9961947 0 -0.08715564 -0.9659258 0 -0.2588195 0.9961947 0 -0.08715564 0.9961947 0 -0.08715534 0.9961947 0 0.08715534 -0.9961947 0 0.08715534 -0.9961947 0 -0.08715534 0 1 0 -0.9659255 0 0.2588202 0.9659252 0 0.2588217 0.9659253 0 0.258821 -0.9063075 0 0.4226192 -0.9659258 0 0.2588195 0.9063075 0 0.4226192 0.9063079 0 0.422618 0 1 0 -0.8191531 0 0.573575 -0.9063079 0 0.422618 0.8191539 0 0.5735739 0.8191519 0 0.5735768 0 1 0 -0.7071079 0 0.7071056 -0.8191511 0 0.5735779 0.7071071 0 0.7071065 0.7071056 0 0.7071079 0 1 0 -0.5735763 0 0.8191521 -0.7071065 0 0.7071071 0.5735772 0 0.8191516 0.5735791 0 0.8191502 -0.4226168 0 0.9063085 -0.5735784 0 0.8191508 0.4226168 0 0.9063085 -0.2588202 0 0.9659255 0.2588198 0 0.9659256 0.258817 0 0.9659264 -0.08715713 0 0.9961946 -0.2588174 0 0.9659263 0.08715736 0 0.9961946 0.08715438 0 0.9961949 -0.08715409 0 0.9961948 -1 0 0 -1 -6.82911e-7 0 -1 1.72385e-6 0 0 0 -1 0 -1 1.82431e-6 0 -1 -1.48679e-6 0 -1 6.12922e-7 0 -1 -8.38605e-7 1 0 0 0 -1 -8.38611e-7 0 -1 7.06199e-7 0 -1 -6.39439e-7 0 -1 -5.55572e-7 0 -1 8.386e-7 0 -1 7.33783e-7 0 -1 -5.29651e-7 0 -1 5.59509e-7 0 -1 -6.12922e-7 0 -1 -3.09232e-7 0 -1 -4.93261e-7 0 -1 1.48679e-6 0 -1 3.717e-7 0 -1 0 0 0 1 -0.4228854 -0.9061832 0 0.4228854 -0.9061832 0 0.4228855 -0.9061832 0 -0.4228855 -0.9061832 0 0 -1 0 0 -1 0 4.11051e-6 0 1 -4.11051e-6 0 1 -4.11052e-6 0 1 0.08715581 -0.9961948 0 -0.08715569 -0.9961948 0 0.08715569 -0.9961948 0 -6.89516e-7 0 1 -5.62378e-7 0 1 -0.2588185 -0.965926 0 -0.2588201 -0.9659255 0 0.2588198 -0.9659257 0 -0.2588195 -0.9659257 0 -0.258818 -0.9659261 0 0.2588208 -0.9659254 0 1.47614e-6 0 1 0.2588182 -0.9659262 0 1.40595e-6 0 1 0.2588195 -0.9659257 0 -0.422617 -0.9063085 0 -0.4226192 -0.9063073 0 0.4226192 -0.9063073 0 -0.4226158 -0.9063089 0 -0.4226182 -0.9063079 0 0.4226182 -0.9063079 0 -1.0312e-6 0 1 0.422617 -0.9063085 0 -1.12476e-6 0 1 0.4226158 -0.9063089 0 -0.5735765 -0.819152 0 -0.573579 -0.8191503 0 0.5735784 -0.8191508 0 -0.5735805 -0.8191493 0 -0.5735797 -0.8191498 0 0.5735744 -0.8191535 0 4.58613e-7 0 1 0.5735778 -0.8191511 0 -1.68714e-6 0 1 0.5735831 -0.8191475 0 -0.7071065 -0.7071072 0 -0.7071051 -0.7071086 0 0.707104 -0.7071096 0 -0.707104 -0.7071096 0 -0.7071054 -0.7071082 0 0.7071026 -0.707111 0 -8.30147e-7 0 1 0.7071068 -0.7071068 0 7.75182e-6 0 1 1.12476e-6 0 1 0.7071096 -0.707104 0 -0.819153 -0.5735751 0 -0.8191536 -0.5735742 0 0.819153 -0.5735751 0 -0.8191543 -0.5735732 0 0.819149 -0.5735808 0 7.637e-7 0 1 0.8191543 -0.5735732 0 1.12475e-6 0 1 -0.9063071 -0.4226197 0 -0.9063087 -0.4226164 0 0.9063079 -0.4226182 0 -0.9063079 -0.422618 0 -0.9063068 -0.4226205 0 0.9063068 -0.4226205 0 0.9063079 -0.422618 0 1.12476e-6 0 1 0.90631 -0.4226134 0 -0.9659258 -0.2588195 0 -0.9659256 -0.2588201 0 0.9659265 -0.2588168 0 -0.9659271 -0.2588142 0 0.9659258 -0.2588195 0 2.70588e-6 0 1 -2.24952e-6 0 1 2.24953e-6 0 1 -4.13712e-6 0 1 -2.4652e-6 0 1 -0.9961948 -0.08715474 0 -0.9961948 -0.08715426 0 0.9961947 -0.08715635 0 -0.9961951 -0.08715128 0 -0.9961943 -0.08716195 0 0.9961952 -0.08715081 0 0.9961947 -0.08715683 0 0.9961942 -0.08716243 0 -0.9961948 0.08715474 0 1.35578e-6 0 1 0.9961947 0.08715683 0 -0.9961951 0.08715128 0 -0.9961942 0.08716243 0 0.9961942 0.08716243 0 -1.12475e-6 0 1 2.24952e-6 0 1 4.49904e-6 0 1 -4.49903e-6 0 1 0.9961951 0.08715128 0 -0.9659259 0.2588187 0 -0.9659258 0.2588195 0 1.04801e-6 0 1 0.9659258 0.2588195 0 -0.9659276 0.2588129 0 1.04801e-6 0 1 0.9659269 0.2588155 0 0.9659261 0.258818 0 4.72367e-6 0 1 -0.9063076 0.4226186 0 -0.9063082 0.4226176 0 -1.79409e-6 0 1 0.9063089 0.4226158 0 -0.9063058 0.4226226 0 -0.9063089 0.4226158 0 -1.79409e-6 0 1 0.9063111 0.4226112 0 0.9063069 0.4226204 0 0.9063058 0.4226226 0 -0.8191536 0.5735742 0 -0.8191511 0.5735778 0 8.23398e-7 0 1 0.8191525 0.5735759 0 -0.8191543 0.5735732 0 -0.8191525 0.5735759 0 8.23398e-7 0 1 0.819153 0.5735751 0 0.819149 0.5735808 0 -0.7071079 0.7071058 0 -0.7071093 0.7071043 0 -7.9983e-7 0 1 0.7071096 0.707104 0 -0.7071082 0.7071054 0 -0.7071068 0.7071068 0 -7.9983e-7 0 1 0.7071124 0.7071012 0 0.7071068 0.7071068 0 0.7071054 0.7071082 0 -0.5735753 0.8191529 0 -0.5735746 0.8191534 0 0.5735759 0.8191525 0 -0.5735759 0.8191525 0 -0.5735785 0.8191506 0 0.5735812 0.8191488 0 0.5735746 0.8191534 0 0.5735707 0.8191561 0 -0.4226192 0.9063073 0 -0.4226216 0.9063063 0 -8.86742e-7 0 1 0.4226216 0.9063063 0 -0.4226182 0.9063079 0 -0.4226205 0.9063068 0 -8.86737e-7 0 1 0.4226205 0.9063068 0 0.4226192 0.9063073 0 0.4226182 0.9063079 0 -0.2588175 0.9659262 0 -0.2588172 0.9659264 0 -1.02763e-6 0 1 0.2588168 0.9659265 0 -0.2588155 0.9659269 0 -0.2588182 0.9659261 0 -1.02764e-6 0 1 0.2588182 0.9659261 0 0.2588172 0.9659264 0 -0.08715569 0.9961948 0 2.2968e-6 0 1 0.08715581 0.9961948 0 2.2968e-6 0 1 0.08715569 0.9961948 0</float_array>
          <technique_common>
            <accessor source="#M-DOME-mesh-normals-array" count="344" stride="3">
              <param name="X" type="float"/>
              <param name="Y" type="float"/>
              <param name="Z" type="float"/>
            </accessor>
          </technique_common>
        </source>
        <vertices id="M-DOME-mesh-vertices">
          <input semantic="POSITION" source="#M-DOME-mesh-positions"/>
        </vertices>
        <triangles count="728">
          <input semantic="VERTEX" source="#M-DOME-mesh-vertices" offset="0"/>
          <input semantic="NORMAL" source="#M-DOME-mesh-normals" offset="1"/>
          <p>0 0 1 0 2 0 1 1 3 1 2 1 3 1 4 1 2 1 4 2 5 2 2 2 5 2 0 2 2 2 6 3 7 3 0 3 7 0 1 0 0 0 5 2 6 2 0 2 3 4 8 4 4 4 8 5 9 5 4 5 9 2 5 2 4 2 10 6 11 6 6 6 11 7 7 7 6 7 5 2 10 2 6 2 8 8 12 8 9 8 12 9 13 9 9 9 13 2 5 2 9 2 14 10 15 10 10 10 15 11 11 11 10 11 5 2 14 2 10 2 12 12 16 12 13 12 16 13 17 13 13 13 17 2 5 2 13 2 18 14 19 14 14 14 19 15 15 15 14 15 5 2 18 2 14 2 16 16 20 16 17 16 20 17 21 17 17 17 21 2 5 2 17 2 22 18 23 18 18 18 23 19 19 19 18 19 5 2 22 2 18 2 20 20 24 20 21 20 24 21 25 21 21 21 25 2 5 2 21 2 26 22 27 22 22 22 27 23 23 23 22 23 5 2 26 2 22 2 24 24 28 24 25 24 28 24 29 24 25 24 29 2 5 2 25 2 30 25 31 25 26 25 31 22 27 22 26 22 5 2 30 2 26 2 28 26 32 26 29 26 32 26 33 26 29 26 33 2 5 2 29 2 34 27 35 27 30 27 35 25 31 25 30 25 5 2 34 2 30 2 32 28 36 28 33 28 36 29 37 29 33 29 37 2 5 2 33 2 38 30 39 30 34 30 39 31 35 31 34 31 5 2 38 2 34 2 36 32 40 32 37 32 40 32 41 32 37 32 41 2 5 2 37 2 42 33 43 33 38 33 43 30 39 30 38 30 5 2 42 2 38 2 40 34 44 34 41 34 44 35 45 35 41 35 45 2 5 2 41 2 46 36 47 36 42 36 47 37 43 37 42 37 5 2 46 2 42 2 44 38 48 38 45 38 48 38 49 38 45 38 49 2 5 2 45 2 50 39 51 39 46 39 51 36 47 36 46 36 5 2 50 2 46 2 48 40 52 40 49 40 52 40 53 40 49 40 53 2 5 2 49 2 54 2 55 2 5 2 56 2 54 2 5 2 57 2 58 2 5 2 58 2 59 2 5 2 59 2 56 2 5 2 60 2 61 2 5 2 61 2 62 2 5 2 62 2 57 2 5 2 63 2 64 2 5 2 64 2 65 2 5 2 65 2 60 2 5 2 53 2 66 2 5 2 66 2 63 2 5 2 67 2 68 2 5 2 68 2 50 2 5 2 69 2 70 2 5 2 70 2 71 2 5 2 71 2 67 2 5 2 72 2 73 2 5 2 73 2 74 2 5 2 74 2 69 2 5 2 55 2 75 2 5 2 75 2 76 2 5 2 76 2 72 2 5 2 68 41 77 41 50 41 77 39 51 39 50 39 52 42 78 42 53 42 78 43 66 43 53 43 67 44 79 44 68 44 79 45 77 45 68 45 78 46 80 46 66 46 80 46 63 46 66 46 71 47 81 47 67 47 81 44 79 44 67 44 80 48 82 48 63 48 82 49 64 49 63 49 70 50 83 50 71 50 83 51 81 51 71 51 82 52 84 52 64 52 84 53 65 53 64 53 69 54 85 54 70 54 85 55 83 55 70 55 84 56 86 56 65 56 86 56 60 56 65 56 74 57 87 57 69 57 87 54 85 54 69 54 86 58 88 58 60 58 88 59 61 59 60 59 73 60 89 60 74 60 89 61 87 61 74 61 88 62 90 62 61 62 90 62 62 62 61 62 72 63 91 63 73 63 91 60 89 60 73 60 90 64 92 64 62 64 92 64 57 64 62 64 76 65 93 65 72 65 93 63 91 63 72 63 92 66 94 66 57 66 94 67 58 67 57 67 75 68 95 68 76 68 95 69 93 69 76 69 94 70 96 70 58 70 96 71 59 71 58 71 55 72 97 72 75 72 97 73 95 73 75 73 96 74 98 74 59 74 98 74 56 74 59 74 54 75 99 75 55 75 99 75 100 75 55 75 100 72 97 72 55 72 98 76 54 76 56 76 98 76 99 76 54 76 101 77 3 77 1 77 102 77 101 77 1 77 7 77 102 77 1 77 11 77 102 77 7 77 103 77 8 77 3 77 101 77 103 77 3 77 104 77 102 77 11 77 15 77 104 77 11 77 103 77 105 77 8 77 105 77 12 77 8 77 106 77 104 77 15 77 19 77 106 77 15 77 105 77 16 77 12 77 107 77 106 77 19 77 23 77 107 77 19 77 108 77 20 77 16 77 105 77 108 77 16 77 27 78 107 78 23 78 109 77 24 77 20 77 108 77 109 77 20 77 110 77 107 77 27 77 31 77 110 77 27 77 109 77 111 77 24 77 111 77 28 77 24 77 112 77 110 77 31 77 35 77 112 77 31 77 111 77 32 77 28 77 39 77 112 77 35 77 113 77 36 77 32 77 111 77 113 77 32 77 114 77 112 77 39 77 43 77 114 77 39 77 113 77 115 77 36 77 115 77 40 77 36 77 116 79 103 79 101 79 102 80 117 80 101 80 117 81 116 81 101 81 104 82 118 82 102 82 118 80 117 80 102 80 116 83 119 83 103 83 119 84 105 84 103 84 106 85 120 85 104 85 120 86 118 86 104 86 119 87 121 87 105 87 121 87 108 87 105 87 107 88 122 88 106 88 122 85 120 85 106 85 121 89 123 89 108 89 123 90 109 90 108 90 124 77 114 77 43 77 47 91 124 91 43 91 115 77 44 77 40 77 110 92 125 92 107 92 125 93 122 93 107 93 123 94 126 94 109 94 126 95 111 95 109 95 112 96 127 96 110 96 127 97 125 97 110 97 126 98 128 98 111 98 128 98 113 98 111 98 114 99 129 99 112 99 129 100 127 100 112 100 128 101 130 101 113 101 130 102 115 102 113 102 131 77 124 77 47 77 51 103 131 103 47 103 132 77 48 77 44 77 115 77 132 77 44 77 124 104 133 104 114 104 133 105 129 105 114 105 130 106 134 106 115 106 134 107 132 107 115 107 131 108 135 108 124 108 135 109 133 109 124 109 136 77 48 77 132 77 134 110 137 110 132 110 137 111 136 111 132 111 77 77 131 77 51 77 136 77 52 77 48 77 138 77 52 77 136 77 137 112 139 112 136 112 139 112 138 112 136 112 77 77 140 77 131 77 140 113 141 113 131 113 141 114 135 114 131 114 77 77 79 77 140 77 79 115 142 115 140 115 142 116 143 116 140 116 143 113 141 113 140 113 144 77 80 77 138 77 80 77 78 77 138 77 78 77 52 77 138 77 139 117 145 117 138 117 145 118 144 118 138 118 79 77 81 77 142 77 81 77 146 77 142 77 146 119 147 119 142 119 147 120 143 120 142 120 148 77 82 77 144 77 82 77 80 77 144 77 145 121 149 121 144 121 149 122 148 122 144 122 81 77 83 77 146 77 83 77 85 77 146 77 85 123 150 123 146 123 150 124 151 124 146 124 151 125 147 125 146 125 152 77 84 77 148 77 84 77 82 77 148 77 149 126 153 126 148 126 153 127 152 127 148 127 85 77 87 77 150 77 87 128 154 128 150 128 154 129 155 129 150 129 155 130 151 130 150 130 156 77 88 77 152 77 88 77 86 77 152 77 86 77 84 77 152 77 153 131 157 131 152 131 157 132 156 132 152 132 87 77 89 77 154 77 89 133 158 133 154 133 158 134 159 134 154 134 159 135 155 135 154 135 160 77 90 77 156 77 90 77 88 77 156 77 157 136 161 136 156 136 161 137 160 137 156 137 93 77 162 77 158 77 89 77 91 77 158 77 91 77 93 77 158 77 162 138 163 138 158 138 163 139 159 139 158 139 164 77 92 77 160 77 92 77 90 77 160 77 161 140 165 140 160 140 165 140 164 140 160 140 93 77 95 77 162 77 95 77 166 77 162 77 166 141 167 141 162 141 167 138 163 138 162 138 168 77 96 77 164 77 96 77 94 77 164 77 94 77 92 77 164 77 165 142 169 142 164 142 169 143 168 143 164 143 100 77 170 77 166 77 95 77 97 77 166 77 97 77 100 77 166 77 170 144 171 144 166 144 171 145 167 145 166 145 170 77 98 77 168 77 98 77 96 77 168 77 169 146 172 146 168 146 172 147 170 147 168 147 172 148 171 148 170 148 100 77 99 77 170 77 99 77 98 77 170 77 173 149 174 149 175 149 176 150 173 150 175 150 177 151 176 151 175 151 174 152 178 152 175 152 178 152 179 152 175 152 117 153 118 153 175 153 179 2 117 2 175 2 118 154 120 154 175 154 120 2 122 2 175 2 122 2 125 2 175 2 125 155 127 155 175 155 127 2 129 2 175 2 129 2 133 2 175 2 133 156 135 156 175 156 135 2 141 2 175 2 141 2 177 2 175 2 180 157 181 157 179 157 182 157 180 157 179 157 178 157 182 157 179 157 116 2 117 2 179 2 181 2 137 2 179 2 137 2 134 2 179 2 134 158 130 158 179 158 130 159 128 159 179 159 128 160 126 160 179 160 126 2 123 2 179 2 123 2 121 2 179 2 121 2 119 2 179 2 119 2 116 2 179 2 181 161 139 161 137 161 143 2 177 2 141 2 147 162 177 162 143 162 181 163 145 163 139 163 151 2 177 2 147 2 181 164 149 164 145 164 155 2 177 2 151 2 181 165 153 165 149 165 159 166 177 166 155 166 181 2 157 2 153 2 163 2 177 2 159 2 181 167 161 167 157 167 167 2 177 2 163 2 181 168 165 168 161 168 171 169 177 169 167 169 181 170 169 170 165 170 181 171 177 171 171 171 172 2 181 2 171 2 181 2 172 2 169 2 183 149 176 149 177 149 184 149 183 149 177 149 181 172 184 172 177 172 185 157 186 157 181 157 180 157 185 157 181 157 186 172 184 172 181 172 187 149 174 149 173 149 176 173 188 173 173 173 188 152 187 152 173 152 189 174 190 174 180 174 190 175 185 175 180 175 182 152 189 152 180 152 191 176 188 176 176 176 183 172 191 172 176 172 192 157 186 157 185 157 190 172 192 172 185 172 193 149 194 149 195 149 196 152 197 152 195 152 194 152 196 152 195 152 197 2 174 2 195 2 174 177 188 177 195 177 188 2 191 2 195 2 191 2 193 2 195 2 198 157 174 157 197 157 196 157 198 157 197 157 199 149 200 149 201 149 178 149 199 149 201 149 202 152 203 152 201 152 200 152 202 152 201 152 203 2 178 2 201 2 204 157 205 157 203 157 202 157 204 157 203 157 189 2 178 2 203 2 190 2 189 2 203 2 205 2 190 2 203 2 198 152 199 152 174 152 199 152 178 152 174 152 187 2 188 2 174 2 189 2 182 2 178 2 183 2 184 2 191 2 184 178 193 178 191 178 190 2 186 2 192 2 205 2 186 2 190 2 186 172 206 172 184 172 206 157 207 157 184 157 207 2 193 2 184 2 208 172 206 172 186 172 209 149 210 149 186 149 210 149 208 149 186 149 205 2 209 2 186 2 211 172 212 172 193 172 212 172 213 172 193 172 213 172 214 172 193 172 214 172 215 172 193 172 215 172 216 172 193 172 207 172 217 172 193 172 217 172 218 172 193 172 218 179 211 179 193 179 216 172 219 172 193 172 219 172 220 172 193 172 220 172 221 172 193 172 221 149 194 149 193 149 206 157 222 157 207 157 223 172 224 172 207 172 222 172 223 172 207 172 224 172 225 172 207 172 225 172 226 172 207 172 226 172 227 172 207 172 227 172 228 172 207 172 228 172 229 172 207 172 229 172 230 172 207 172 230 180 231 180 207 180 231 172 217 172 207 172 232 172 233 172 209 172 234 172 210 172 209 172 233 172 235 172 209 172 235 172 236 172 209 172 236 172 237 172 209 172 205 172 238 172 209 172 238 172 239 172 209 172 239 179 232 179 209 179 237 172 240 172 209 172 240 172 241 172 209 172 241 172 234 172 209 172 242 172 243 172 205 172 204 172 242 172 205 172 243 172 244 172 205 172 244 172 245 172 205 172 245 172 246 172 205 172 246 172 247 172 205 172 247 172 248 172 205 172 248 172 249 172 205 172 249 181 250 181 205 181 250 172 238 172 205 172 231 182 251 182 217 182 251 183 252 183 217 183 252 183 218 183 217 183 250 184 253 184 238 184 253 183 254 183 238 183 254 183 239 183 238 183 231 182 255 182 251 182 256 185 252 185 251 185 255 172 256 172 251 172 250 184 257 184 253 184 258 186 254 186 253 186 257 172 258 172 253 172 252 187 259 187 218 187 259 188 211 188 218 188 230 189 255 189 231 189 254 190 260 190 239 190 260 191 232 191 239 191 249 192 257 192 250 192 256 193 259 193 252 193 230 194 261 194 255 194 261 172 256 172 255 172 258 195 260 195 254 195 249 196 262 196 257 196 262 172 258 172 257 172 259 197 263 197 211 197 263 198 212 198 211 198 229 199 261 199 230 199 260 200 264 200 232 200 264 201 233 201 232 201 248 202 262 202 249 202 256 203 263 203 259 203 229 204 265 204 261 204 265 172 256 172 261 172 258 205 264 205 260 205 248 206 266 206 262 206 266 172 258 172 262 172 263 207 267 207 212 207 267 208 213 208 212 208 228 209 265 209 229 209 264 210 268 210 233 210 268 211 235 211 233 211 247 212 266 212 248 212 256 213 267 213 263 213 228 214 269 214 265 214 269 172 256 172 265 172 258 215 268 215 264 215 247 216 270 216 266 216 270 172 258 172 266 172 267 217 271 217 213 217 271 218 214 218 213 218 227 219 269 219 228 219 268 220 272 220 235 220 272 221 236 221 235 221 246 222 270 222 247 222 256 223 271 223 267 223 227 224 273 224 269 224 273 225 256 225 269 225 258 226 272 226 268 226 246 227 274 227 270 227 274 172 258 172 270 172 271 228 275 228 214 228 275 229 215 229 214 229 226 230 273 230 227 230 272 231 276 231 236 231 276 231 237 231 236 231 245 232 274 232 246 232 256 233 275 233 271 233 226 234 277 234 273 234 277 172 256 172 273 172 258 235 276 235 272 235 245 234 278 234 274 234 278 172 258 172 274 172 275 236 279 236 215 236 279 237 216 237 215 237 225 238 277 238 226 238 276 239 280 239 237 239 280 240 240 240 237 240 244 241 278 241 245 241 256 172 279 172 275 172 225 242 281 242 277 242 281 172 256 172 277 172 258 243 280 243 276 243 244 244 282 244 278 244 282 172 258 172 278 172 279 245 283 245 216 245 283 246 219 246 216 246 224 247 281 247 225 247 280 245 284 245 240 245 284 248 241 248 240 248 243 249 282 249 244 249 285 172 283 172 279 172 256 172 285 172 279 172 224 249 286 249 281 249 286 250 256 250 281 250 258 251 284 251 280 251 243 249 287 249 282 249 287 252 258 252 282 252 288 172 289 172 285 172 289 253 290 253 285 253 290 254 283 254 285 254 291 149 292 149 285 149 292 149 288 149 285 149 256 2 291 2 285 2 286 172 293 172 256 172 293 172 294 172 256 172 294 157 295 157 256 157 295 2 291 2 256 2 296 172 292 172 291 172 295 172 296 172 291 172 294 157 296 157 295 157 283 255 290 255 219 255 290 256 220 256 219 256 223 257 286 257 224 257 284 258 297 258 241 258 297 259 234 259 241 259 242 260 287 260 243 260 223 261 293 261 286 261 258 172 297 172 284 172 242 262 298 262 287 262 298 172 258 172 287 172 299 172 221 172 220 172 289 263 299 263 220 263 290 263 289 263 220 263 222 264 300 264 223 264 300 265 293 265 223 265 301 172 210 172 234 172 302 266 301 266 234 266 297 267 302 267 234 267 204 264 303 264 242 264 303 268 298 268 242 268 300 265 304 265 293 265 304 172 294 172 293 172 258 172 302 172 297 172 298 172 305 172 258 172 306 269 302 269 258 269 307 172 308 172 258 172 308 270 309 270 258 270 309 172 306 172 258 172 310 271 311 271 258 271 311 172 312 172 258 172 312 172 307 172 258 172 313 172 314 172 258 172 314 172 315 172 258 172 315 172 310 172 258 172 316 172 317 172 258 172 317 172 318 172 258 172 318 172 313 172 258 172 305 172 319 172 258 172 319 172 320 172 258 172 320 272 316 272 258 272 303 273 305 273 298 273 321 172 221 172 299 172 289 274 322 274 299 274 322 275 321 275 299 275 222 276 323 276 300 276 323 277 304 277 300 277 324 172 210 172 301 172 302 278 306 278 301 278 306 275 324 275 301 275 204 279 325 279 303 279 325 277 305 277 303 277 288 172 322 172 289 172 323 280 326 280 304 280 326 172 294 172 304 172 325 281 319 281 305 281 294 172 327 172 288 172 327 172 322 172 288 172 292 77 296 77 288 77 296 77 294 77 288 77 328 172 329 172 294 172 329 172 330 172 294 172 330 172 327 172 294 172 331 172 332 172 294 172 326 172 333 172 294 172 333 172 334 172 294 172 334 172 331 172 294 172 332 172 335 172 294 172 335 172 336 172 294 172 336 172 337 172 294 172 337 172 338 172 294 172 338 282 339 282 294 282 339 172 328 172 294 172 340 172 221 172 321 172 322 283 327 283 321 283 327 284 340 284 321 284 222 285 341 285 323 285 341 286 326 286 323 286 342 172 210 172 324 172 306 287 309 287 324 287 309 288 342 288 324 288 204 289 343 289 325 289 343 290 319 290 325 290 341 291 333 291 326 291 343 292 320 292 319 292 344 172 221 172 340 172 327 293 330 293 340 293 330 294 344 294 340 294 222 295 345 295 341 295 345 296 333 296 341 296 346 172 210 172 342 172 309 297 308 297 342 297 308 298 346 298 342 298 204 299 347 299 343 299 347 296 320 296 343 296 345 300 334 300 333 300 347 301 316 301 320 301 348 172 221 172 344 172 330 302 329 302 344 302 329 303 348 303 344 303 222 304 349 304 345 304 349 305 334 305 345 305 350 172 210 172 346 172 308 306 307 306 346 306 307 307 350 307 346 307 204 308 351 308 347 308 351 309 316 309 347 309 349 310 331 310 334 310 351 311 317 311 316 311 352 172 221 172 348 172 329 312 328 312 348 312 328 313 352 313 348 313 222 172 353 172 349 172 353 314 331 314 349 314 354 172 210 172 350 172 307 315 312 315 350 315 312 316 354 316 350 316 204 172 355 172 351 172 355 317 317 317 351 317 353 318 332 318 331 318 355 319 318 319 317 319 356 172 221 172 352 172 328 320 339 320 352 320 339 321 356 321 352 321 222 322 357 322 353 322 357 323 332 323 353 323 358 172 210 172 354 172 312 324 311 324 354 324 311 325 358 325 354 325 204 326 359 326 355 326 359 327 318 327 355 327 357 328 335 328 332 328 359 329 313 329 318 329 360 172 221 172 356 172 339 330 338 330 356 330 338 331 360 331 356 331 222 332 361 332 357 332 361 333 335 333 357 333 362 172 210 172 358 172 311 334 310 334 358 334 310 335 362 335 358 335 204 336 363 336 359 336 363 337 313 337 359 337 361 338 336 338 335 338 363 337 314 337 313 337 364 172 221 172 360 172 338 339 337 339 360 339 337 339 364 339 360 339 222 340 364 340 361 340 364 341 336 341 361 341 365 172 210 172 362 172 310 339 315 339 362 339 315 339 365 339 362 339 204 342 365 342 363 342 365 343 314 343 363 343 364 341 337 341 336 341 365 343 315 343 314 343 222 172 221 172 364 172 204 172 210 172 365 172 198 77 196 77 194 77 221 77 198 77 194 77 199 77 202 77 200 77 199 77 208 77 202 77 208 77 204 77 202 77 221 77 206 77 198 77 206 77 199 77 198 77 206 77 208 77 199 77 221 77 222 77 206 77 210 77 204 77 208 77</p>
        </triangles>
      </mesh>
    </geometry>
  </library_geometries>
  <library_materials>
    <material id="m_grey20" name="grey20">
      <instance_effect url="#m_grey20-fx"/>
    </material>
  </library_materials>
  <library_effects>
    <effect id="m_grey20-fx" name="grey20">
      <profile_COMMON>
        <technique sid="standard">
          <phong>
            <ambient>
              <color sid="ambient">0.2 0.2 0.2 1</color>
            </ambient>
            <diffuse>
              <color sid="diffuse">0.2 0.2 0.2 1</color>
            </diffuse>
            <specular>
              <color sid="specular">0.2 0.2 0.2 1</color>
            </specular>
          </phong>
        </technique>
      </profile_COMMON>
    </effect>
  </library_effects>

  <library_visual_scenes>
    <visual_scene id="Scene" name="Scene">
      <node id="M-DOME" name="M-DOME" type="NODE">
        <matrix sid="transform">0.001 0 0 -0.26 0 -4.37114e-11 -0.001 0.15 0 0.001 -4.37114e-11 0 0 0 0 1</matrix>
        <instance_geometry url="#M-DOME-mesh" name="M-DOME">
        <bind_material>
          <technique_common>
            <instance_material symbol="grey20" target="#m_grey20"/>
          </technique_common>
        </bind_material>
      </instance_geometry>
      </node>
      <node id="Camera" name="Camera" type="NODE">
        <matrix sid="transform">0.6859207 -0.3240135 0.6515582 7.358891 0.7276763 0.3054208 -0.6141704 -6.925791 0 0.8953956 0.4452714 4.958309 0 0 0 1</matrix>
        <instance_camera url="#Camera-camera"/>
      </node>
      <node id="Light" name="Light" type="NODE">
        <matrix sid="transform">-0.2908646 -0.7711008 0.5663932 4.076245 0.9551712 -0.1998834 0.2183912 1.005454 -0.05518906 0.6045247 0.7946723 5.903862 0 0 0 1</matrix>
        <instance_light url="#Light-light"/>
      </node>
    </visual_scene>
  </library_visual_scenes>
  <scene>
    <instance_visual_scene url="#Scene"/>
  </scene>
</COLLADA>